<?xml version="1.0" encoding="utf-8"?>
<!-- Generator: Adobe Illustrator 25.2.1, SVG Export Plug-In . SVG Version: 6.00 Build 0)  -->
<svg version="1.1" id="Capa_1" xmlns="http://www.w3.org/2000/svg" xmlns:xlink="http://www.w3.org/1999/xlink" x="0px" y="0px"
	 viewBox="0 0 2500 1710" style="enable-background:new 0 0 2500 1710;" xml:space="preserve">
<style type="text/css">
	.st0{fill:#878787;}
</style>
<path class="st0" d="M1130.4,173.8c11.2,0,18.3-11.3,25.4-28.8c9.2-21.6,51.8-61.7,110.7-61.7c44.7,0,88.4,27.8,124,56.6
	c33.6,27.7,61,28.8,61,41.1c0,4.1-7.1,7.2-15.2,7.2c-33.5,0-92.4-50.3-155.4-50.3c-71.2,0-129.1,61.6-129.1,96.6
	c0,10.3,4.1,18.5,17.2,18.5c15.3,0,32.5-37,72.1-37c36.6,0,67.1,34.9,117.9,27.7c6.1-1,8.1,8.2,4,10.3
	c-101.6,57.5-209.2,112-209.2,293.9c0,139.7,78.2,274.4,250.9,274.4c179.9,0,266.2-117.1,266.2-274.4c0-135.7-82.3-261-193-261
	c-4.1,0-8.1,0-12.2,1c-7.1,2-13.3,8.2-13.3,17.4c0,11.3,3.1,14.4,10.2,19.5c71.1,50.4,95.6,99.7,95.6,236.4
	c0,96.6-39.7,203.9-139.3,203.9c-107.7,0-153.4-115.5-153.4-219.2c0-120.3,30.5-176.8,105.7-233.3c81.2-61.7,177.8-90.5,177.8-147
	c0-27.7-29.4-32.9-48.8-33.9c-17.3-1.1-41.7-7.2-53.9-24.7C1396.6,54.6,1338.6,0.1,1269.6,0.1C1171,0.1,1113.1,105,1113.1,144
	C1113.1,159.5,1116.1,173.8,1130.4,173.8 M2114.1,328.1h15.6c4.7,0,10.9,4.7,12.4,11.8c2.3,6.3,3.1,10.2,3.1,30.7v351.7
	c0,21.2-0.8,25.2-3.1,31.4c-1.6,5.5-7,10.2-12.4,10.2h-15.6c-10.8,0-19.4,9.5-19.4,21.3c0,17.3,8.6,22.8,35,22.8h305l14.8-0.8
	c12.3-0.7,16.2-3.9,21.7-17.3l22.6-52.7c4.7-11,6.3-18.1,6.3-22c0-11-7.8-18.9-20.2-18.9c-10.1,0-14,3.1-23.3,17.2
	c-15.6,22.9-30.3,34.7-48.3,37.8c-13.3,2.4-33.5,3.2-72.3,3.2c-41.3,0-56.8-1.6-67-5.5c-12.4-4.7-14.8-13.3-14.8-55V569.6
	c0-17.3,2.3-25.2,7-28.3c3.9-2.3,9.4-3.1,31.9-3.1h60.7c20.3,0,30.3-9.4,30.3-27.6c0-18.9-7.7-25.9-30.3-25.9h-99.6V383.9
	c0-41.7,4.7-47.2,47.4-47.2h52.2c49,0,63.7,5.5,79.4,28.3c5.4,7.1,8.5,11.8,9.3,13.4c3.1,3.1,7.1,6.3,10.9,7.8
	c2.3,1.6,5.4,2.4,8.5,2.4c11.8,0,21-8.7,21-18.1c0-2.3-1.6-7.1-3.9-13.4l-22.5-58.2c-4.7-11.9-11-15.8-27.2-15.8h-299.6
	c-26.4,0-35.8,5.5-35.8,22.8C2093.8,317.8,2103.2,328.1,2114.1,328.1 M2078.3,1077.1c24.1,28.3,31,33,105,84.9
	c44.3,31.5,65.4,48.8,82.5,67.7c16.4,18.9,24.9,37.7,24.9,59c0,41.6-34.2,70-84.8,70c-44.3,0-87.9-23.6-115.1-62.1l-10.9-15.8
	c-4.7-6.3-11.7-10.2-19.5-10.2c-14,0-24.9,10.2-24.9,24.4c0,3.9,0.7,11,2.3,15.8l19.4,78.7c4.6,19,10.9,26,24.1,26
	c7,0,10.9-1.6,17.9-7c7-6.3,10.1-7.9,16.4-7.9c4.7,0,6.2,0.8,17.1,3.9c22.6,7.1,52.9,11,81.7,11c102.7,0,169.6-59.8,169.6-151.1
	c0-40.1-15.5-79.5-42.1-107.1c-24.8-26-45.1-41.6-106.5-85c-16.3-11.8-28.8-20.4-38.2-27.6c-15.5-11.8-28-24.4-35.7-36.2
	c-6.3-8.7-8.6-20.5-8.6-32.3c0-32.2,23.4-52.7,59.1-52.7c25.6,0,52.1,8.6,73.2,25.2c16.3,12.6,19.4,15.8,37.3,42.5
	c7,10.2,11.6,13.4,20.2,13.4c13.2,0,22.6-8.7,22.6-18.9c0-2.3,0-7-1.6-11l-18.7-85c-3.2-14.2-10.1-22.1-21.8-22.1
	c-6.2,0-8.6,0.8-16.3,6.3c-6.9,4.7-12.4,7-17.9,7c-3.1,0-7-0.7-10.9-1.5c-10.8-2.4-17.1-4-19.5-4.7c-22.5-4.7-45.1-7.1-66.9-7.1
	c-85.5,0-143.1,50.4-143.1,126.7C2048.7,1025.9,2058.8,1054.2,2078.3,1077.1 M1697.8,328.1h14.8c5.4,0,11.6,4,13.1,10.3
	c2.3,6.2,3.2,9.4,3.2,30.6v355.8c0,19.6-0.9,23.6-3.2,29.1c-1.5,5.5-7.7,10.2-13.1,10.2h-14.8c-10.9,0-19.4,9.5-19.4,21.3
	c0,17.3,8.6,22.8,34.3,22.8h299.5c24.1,0,30.3-3.9,38.1-23.6l24.1-59.8l3.2-8.7c1.6-3.2,2.3-6.3,2.3-9.4c0-9.4-9.4-17.3-21-17.3
	c-9.3,0-14.1,3.2-23.4,16.5c-18.7,26.8-28.8,37-42,42.5c-13.2,5.5-21.8,5.5-68.5,5.5c-53.7,0-68.5-0.8-76.2-6.2
	c-9.3-5.5-10.8-13.4-10.8-48.1V368.9c0-20.5,0-25.2,2.3-30.6c2.3-6.3,9.3-10.3,16.3-10.3h17.1c10.8,0,20.2-9.5,20.2-22
	c0-17.3-9.4-22.8-37.3-22.8h-143.9c-26.5,0-35.8,5.5-35.8,22.8C1676.9,318.6,1686.2,328.1,1697.8,328.1 M1571.7,1314
	c-0.7,18-2.3,19.6-26.4,23.6c-13.2,1.6-21,9.4-21,21.2c0,6.3,3.9,13.4,9.3,17.3c27.3,21.3,119.8,39.4,200.7,39.4
	c86.4,0,146.3-17.3,192.2-54.3c57.6-46.4,89.4-125,89.4-220.3c0-85-24.8-156.7-70.8-203.1c-47.5-48.8-111.3-70-204.6-70
	c-88,0-179,16.5-206.2,37.8c-6.2,4.7-10.1,11.7-10.1,18.8c0,11.9,8.6,19.7,23.4,20.5c21,1.6,23.3,4.7,24,25.2l0.9,17.3v309.3
	L1571.7,1314z M1681.5,997.6c0-44.8,1.5-54.3,11.6-62.1c11.7-9.5,34.3-15.7,58.4-15.7c92.6,0,147.8,81.8,147.8,220.3
	c0,138.6-55.2,218.7-150.9,218.7c-29.6,0-53-7.8-61.4-19.6c-4.7-7.8-5.5-14.2-5.5-45.6V997.6z M353.7,932.3
	c80.9,0,90.3,3.2,112.1,36.2c7.8,11.8,13.2,16.5,21.8,16.5c11.7,0,20.2-8.7,20.2-18.9c0-3.1-0.7-6.3-3-12.6L484.5,900
	c-3.9-9.5-7.8-15.8-12.4-18.1c-4-2.4-6.3-3.2-18.7-3.2H167.8c-25.7,0-34.2,5.5-34.2,22.8c0,11.8,7.8,22.1,18.6,22.1h15.6
	c5.5,0,10.9,3.9,13.2,10.2c1.6,5.5,2.4,10.3,2.4,30.7v353.3c0,21.3-0.8,25.2-2.4,30.7c-2.3,6.4-7.8,10.2-13.2,10.2h-15.6
	c-10.9,0-20.2,10.2-20.2,22.1c0,17.3,9.3,22.8,35.8,22.8H311c28.8,0,38.1-5.5,38.1-22.8c0-11.9-8.6-22.1-20.3-22.1H311
	c-6.2,0-13.2-3.8-16.3-10.2c-2.4-5.5-2.4-9.4-2.4-30.7v-156.6c0-16.6,0.8-21.3,6.2-23.6c3.1-1.6,7-2.4,11-2.4h79.4
	c21.8,0,33.4-9.4,33.4-26.8c0-18.1-10.8-26.7-33.4-26.7h-96.5V964.6C292.3,933.8,297,932.3,353.7,932.3 M2346.7,1466.9H178.9
	c-66.3,0-120.1,54.3-120.1,121.4c0,67,53.8,121.5,120.1,121.5h2167.8c66.3,0,120.1-54.4,120.1-121.5
	C2466.8,1521.3,2413,1466.9,2346.7,1466.9 M473.6,1632.4l5.4,3.7h4.9c4.2,0,7.7,4.2,7.7,8.8c0,6-3.2,8.3-12.7,8.3h-56
	c-10,0-13.7-2.4-13.7-8.3c0-4.6,3.7-8.8,8.3-8.8h5.4l5.6-3.7c1-2.4,1-3.8,1-12.1v-63l-50.2,49.5c-3,3.2-6.5,5-10.1,5
	c-3.7,0-5.4-1.2-9.1-5l-47.2-50.9v64.4c0,7.8,0,9.7,0.8,12.1l5.4,3.7h5.9c4.8,0,8.3,4.2,8.3,8.8c0,6-3.2,8.3-14.2,8.3h-40.1
	c-9.7,0-13.7-2.4-13.7-8.3c0-4.6,3.9-8.8,8.3-8.8h5.4l5.4-3.7c1-2,1.2-4.8,1.2-12.1v-70.4c0-8.2-0.2-10.2-1.2-12.5l-5.4-4.2h-5.4
	c-4.4,0-8.3-3.6-8.3-8.5c0-6.2,3.9-8.6,13.7-8.6h45.4c4.8,0,7.6,1.2,14.1,8.4l42.9,47.6l50-49.6c5.2-5,8.3-6.4,12.8-6.4H479
	c9.5,0,12.7,2.4,12.7,8.6c0,4.8-3.5,8.5-7.7,8.5h-6.4l-4.6,3.5c-1,2-1,4.9-1,13.1v70.4C472,1628.2,472,1630.1,473.6,1632.4
	 M846.9,1653.2H784c-5.9,0-9.2-3.4-9.2-8.3c0-6,3.4-7.7,11.3-9c6.8-1.2,7.3-4.9,4.8-11.3l-0.8-2c-1.6-4-3.8-4.4-10.7-4.4h-45.7
	c-4.6,0-7,0.4-8.1,1l-3,2.4l-0.5,1.4c-2,4.6,0.2,11.6,8.3,12.6c7.7,1,10.9,3.2,10.9,8.8c0,5.6-4.2,8.8-10.3,8.8h-49.6
	c-7.4,0-10.8-2.4-10.8-7.8c0-5.2,2.6-7.4,8.4-8.8c4.1-1,5.6-2,7.3-4.2c1.4-1.8,4.2-7.2,7-12.6l46.6-93.4
	c5.4-10.7,15.5-13.1,24.8-13.1c8.5,0,19.3,3.1,24.2,13.1l45.1,89.8c6.9,13.8,9.1,16.8,13.7,18.4l4.2,1.4c3,1,5.4,3.6,5.4,7.8
	C857.3,1649.9,853.7,1653.2,846.9,1653.2 M1214.1,1653.2H1177c-8.3,0-12.4-2.5-18.1-8.8l-41.9-47.6c-4.2-4.7-5.7-7.4-5.7-9.5
	c0-4,3.4-5.8,11.7-6.6c21.1-1.8,31.6-9.4,31.6-25.5c0-18.1-14.5-26.3-32.5-26.3c-7,0-13.9,1.4-17.5,3.9c-3.2,2.4-4.4,6.5-5,15.1
	l-0.6,9.8v61.9c0,7.8,0,10,0.8,11.8c1,2.6,3.5,4.3,5.8,4.3h6.1c4.2,0,7.6,3.7,7.6,8.6c0,6.4-3.4,8.8-13.7,8.8h-55.8
	c-9.7,0-13.7-2.4-13.7-8.8c0-4.8,4-8.6,8.3-8.6h5.4c2.9,0,4.8-1.7,5.7-4.3c0.8-2.2,0.8-4,0.8-11.8v-68.9c0-8.2-1.4-9.6-9.1-10.1
	c-5.9-0.4-9.3-3.1-9.3-8.4c0-2.6,1.6-5.7,3.4-7.5c9.7-7.8,47.4-11.7,77.4-11.7c51.2,0,79.5,13.3,79.5,38.6
	c0,17.4-7.8,31.9-35.4,36.8l26.6,29.3c9.9,11.1,17.1,14.9,25.4,16.3c5.9,1.7,6.8,1.9,8.5,2.8c1.8,1,3.6,3.6,3.6,6.8
	C1226.9,1649.9,1222.4,1653.2,1214.1,1653.2 M1481.1,1653.2h-55.8c-9.7,0-13.6-2.4-13.6-8.8c0-4.8,3.9-8.6,8.3-8.6h5.4
	c3,0,4.8-1.7,5.7-4.3c0.8-2.2,0.8-4,0.8-11.8v-69.9c0-7.9-0.2-10.6-0.8-12c-1-2.2-2.7-4.2-5.7-4.2h-5.4c-4.4,0-8.3-3.6-8.3-8.8
	c0-6.2,3.9-8.6,13.6-8.6h55.8c10.3,0,13.7,2.4,13.7,8.6c0,5.2-3.4,8.8-7.7,8.8h-6c-2.4,0-4.2,1.6-5.2,4.2c-1,2.6-1.4,3.8-1.4,12
	v69.9c0,5.2,0.2,10.2,1.7,12.6l4.9,3.5h6c3.7,0,7.7,3.7,7.7,8.6C1494.8,1650.9,1490.8,1653.2,1481.1,1653.2 M1599.9,1653.2h-37.7
	c-8.2,0-10.7-2.7-16.6-8.8l-54.6-54.6c-2.6-2.6-3.6-4-3.6-5.6l3.6-5.2l39.5-33.7c5.8-5,2.4-11.1-0.8-11.1c-3.6,0-5.7-3.3-5.7-9.4
	c0-5.4,2.7-8.6,9.5-8.6h63.3c6.6,0,10.1,2.6,10.1,8.4c0,5-2.6,7.7-10.1,8.7c-6.9,0.9-9.6,0.9-14.5,2.2c-4.5,1.2-10.3,4.6-14.1,7.8
	l-36,31.4l44.6,44.3c11.7,11.7,18.4,15.2,24.4,16.9c6.7,1.7,10,2.9,10,8.6C1611.1,1649.9,1607.1,1653.2,1599.9,1653.2
	 M1953.6,1622.6l-10.3,26.1c-1.6,3.4-2.7,4.2-7.9,4.2l-6,0.3h-122c-10.3,0-13.7-2.4-13.7-8.8c0-4.8,3.4-8.4,7.5-8.4h6.2l4.5-4.3
	c1.2-1.9,1.4-4.2,1.4-11.9v-69.3c0-7.8-0.2-10-1.4-12.1c-0.4-2.8-2.8-4.8-4.5-4.8h-6.2c-4.1,0-8.1-4-8.1-8.8c0-6.2,4-8.6,14.3-8.6
	h120.8c6.4,0,8.6,1,9.8,3.9l9.1,23.7l1.2,3.4c-0.6,2.4-5.6,4.6-9.9,4.6l-3.6-0.6l-3.8-1.8l-3-3.8c-4.9-5.9-13.6-12.1-33.2-12.1
	h-20.2c-16.9,0-18.7,1.6-18.7,12.4v22.7h38.9c9.3,0,11.9,5,11.9,10.2c0,5.6-3.5,10.6-11.9,10.6h-23.8c-6.2,0-10.9-0.4-12.5,0.8
	c-1.6,1.2-2.6,3.4-2.6,8v21.5c0,10.8,0.9,13,6,14.2c3.3,0.8,10,1.7,26.1,1.7c15.1,0,23-0.5,27.9-1.1c6.8-0.8,16.7-12.3,21.7-18.5
	c3-3.8,4.2-4.4,8.3-4.4c5.2,0,7.9,2,8.6,4.6C1955,1617.9,1954.8,1619.4,1953.6,1622.6 M2293.6,1554.6c-3.2,0-5.7-1.2-8.3-4.6
	l-2.4-2.8c-2.9-3.7-7.9-10.7-11.5-11.9c-3.3-1.2-7.7-1.6-19-1.6c-14.3,0-16.1,1-16.1,9.8v76.3c0,7.8,0,9.6,0.8,11.8
	c1,2.6,3.4,4.3,6,4.3h8.3c4.6,0,8.1,3.7,8.1,8.6c0,6.4-3.5,8.8-14.6,8.8h-60.2c-10.7,0-14.4-2.4-14.4-8.8c0-4.8,3.7-8.6,7.7-8.6h9
	c2,0,4.4-1.7,5.3-4.3c0.9-2.2,1.4-4,1.4-11.8v-76.3c0-8.6-1.4-9.8-19.2-9.8c-15.3,0-22.8,6.2-28.2,13.8l-1.6,2.3
	c-2.7,4-5.1,4.8-9.2,4.8c-4.3,0-10.3-2.2-10.7-4.8l1-4.4l9.1-23.9c1.8-5,3.2-5.2,10.3-5.2h139.3c4.5,0,4.8,0.2,6.8,1l2.7,4.2
	l9.9,25.1l0.9,3.2C2304.4,1552.1,2298.3,1554.6,2293.6,1554.6 M214.7,780.4c10.9,29.9,21.8,39.3,44.3,39.3c10.1,0,20.2-3.8,26.5-8.6
	c6.2-6.3,8.5-11.8,15.6-30.7l76.2-215.6l71.6,215.6c9.3,29.1,21,39.3,44.3,39.3c23.3,0,33.4-11,45.1-49.5L662,366.5
	c8.6-27.6,14.1-35.1,30.3-38.6h4.2c5.5,0,10.9,4,13.3,10.2c2.3,5.5,2.3,9.5,2.3,30.7v353.3c0,21.2,0,25.1-2.3,31.4
	c-1.6,5.5-7.8,9.5-13.3,9.5H681c-10.9,0-20.2,10.2-20.2,22c0,17.3,9.3,22.8,35.7,22.8h141.6c24.9,0,33.4-5.5,33.4-22
	c0-12.6-7.7-22.8-18.7-22.8h-14.8c-6.3,0-12.4-4-14.8-9.5c-1.6-6.3-2.4-11-2.4-31.4V578.1c0-36.2,3.1-39.3,31.9-39.3h105.8
	c15.5,0,23.3,2.4,27.2,7.1c3.9,4.7,3.9,7.9,3.9,37v139.3c0,20.4,0,25.1-2.3,31.4c-2.3,5.5-8.6,9.5-14,9.5h-14.8
	c-10.9,0-20.3,10.2-20.3,22c0,17.3,8.6,22.8,35,22.8H1115c27.3,0,35.8-5.5,35.8-22.8c0-11.8-8.5-22-20.2-22H1115
	c-5.4,0-11.6-4-13.2-9.5c-2.3-6.3-3-11-3-31.4V368.9c0-19.7,0.7-25.2,3-30.7c1.6-5.5,7.8-10.2,13.2-10.2h15.6
	c10.9,0,20.2-9.4,20.2-22c0-17.4-9.3-22.9-35.8-22.9H973.5c-26.4,0-35.8,5.5-35.8,22.9c0,12.5,9.4,22,21,22h14.8
	c5.4,0,11.7,4,14,10.2c2.3,5.5,2.3,10.2,2.3,30.7v116.4H821V368.9c0-19.7,0.7-25.2,2.4-30.7c2.3-5.5,8.5-10.2,14.8-10.2h14.8
	c10.9,0,19.4-9.4,19.4-22c0-17.4-8.5-22.9-34.2-22.9h-257c-21,0-29.6,6.3-29.6,22c0,12.6,7.8,20.5,24.9,22
	c18.7,2.3,27.3,8.7,27.3,20.5c0,4.7-0.8,11-3.1,18.9l-91.8,301.4l-92.6-288c-6.2-18.9-7.8-26-7.8-33c0-14.2,5.4-18.9,26.4-21.3
	c17.1-2.4,25-8.7,25-21.3c0-14.1-8.6-21.2-26.5-21.2H280.9c-17.9,0-27.3,8.6-27.3,23.6c0,11.8,6.2,17.4,22.6,21.3
	c17.9,4.7,24.2,8.7,28.8,20.4c1.6,3.2,3.2,9.5,6.2,18.1l35.8,105.4l-72.3,203.8l-105-295.8l-6.3-18.1c-2.3-6.4-3.1-11.9-3.1-17.3
	c0-12.6,7-18.2,24.1-19.7c20.2-1.6,28-7.1,28-20.5c0-14.1-7.8-21.2-25.7-21.2H26.4C8.6,283.1,0,290.2,0,303.6
	c0,12.6,5.5,18.1,21.8,21.2c24.9,5.5,28.8,9.5,40.4,41.7L214.7,780.4z M747.9,1415.4c131.6,0,223-75,249.9-197.3
	c26.2,121.4,117.3,197.3,246.4,197.3c158,0,258.3-107.8,258.3-276.2c0-165.2-100.3-271.5-256.7-271.5
	c-130.2,0-220.8,74.4-247.5,196.4c-26.2-121.6-117.7-196.4-248.8-196.4c-156.4,0-256,107.1-256,275.4
	C493.5,1307.6,593.9,1415.4,747.9,1415.4 M1245,923.6c86.4,0,140.8,84.2,140.8,219.5c0,132.2-53.7,215.6-139.2,215.6
	c-87.9,0-140.1-80.2-140.1-214.8C1106.5,1007.1,1158.7,923.6,1245,923.6 M748.7,923.6c86.3,0,140.8,84.2,140.8,219.5
	c0,132.2-53.7,215.6-139.2,215.6c-87.9,0-140.1-80.2-140.1-214.8C610.2,1007.1,662.4,923.6,748.7,923.6 M761,1559.4
	c-2.4-5.2-3.4-9.5-3.9-12.7h-1.2c-0.8,3-2.8,7.6-5,12.7l-15.1,33.7l-3,4.7l5.2-0.5h36.7l4.1,0.5l-2.6-4.7L761,1559.4z"/>
</svg>
