<?xml version="1.0" encoding="utf-8"?>
<!-- Generator: Adobe Illustrator 25.2.1, SVG Export Plug-In . SVG Version: 6.00 Build 0)  -->
<svg version="1.1" id="Capa_1" xmlns="http://www.w3.org/2000/svg" xmlns:xlink="http://www.w3.org/1999/xlink" x="0px" y="0px"
	 viewBox="0 0 2500 969" style="enable-background:new 0 0 2500 969;" xml:space="preserve">
<style type="text/css">
	.st0{fill:#878787;}
</style>
<g>
	<ellipse class="st0" cx="769.4" cy="89.5" rx="81" ry="89.5"/>
	<ellipse class="st0" cx="339.8" cy="89.5" rx="81" ry="89.5"/>
	<path class="st0" d="M936.6,509.3c-30,49.6-63.3,81.6-96.6,102.5c-3.9,2.6-7.2,4.6-11.1,6.5c-25.5,14.4-50.3,21.5-72.5,25.5
		c-47,7.8-81-2-81-2c126-88.8,131.2-313.4,131.2-313.4s-13.7-11.8-41.8-25.5c-40.5-20.2-110.4-45.7-208.9-45.7
		S387.4,282.7,346.9,303c-27.4,13.7-41.8,25.5-41.8,25.5s4.6,224.6,131.2,313.4c0,0-43.7,12.4-100.6-2c-17-4.6-34.6-11.1-52.9-20.9
		c-3.9-2-7.2-3.9-11.1-6.5c-33.3-20.9-66.6-52.9-96.6-102.5L74.7,578.5c0,0,8.5,17.6,27.4,41.8c3.9,4.6,7.8,9.8,12.4,15
		c2.6,2.6,4.6,5.2,7.2,7.8c5.2,5.2,10.4,11.1,16.3,16.3c8.5,8.5,18.3,17,29.4,25.5c10.4,8.5,22.2,16.3,35.3,24.2
		c8.5,5.2,17.6,9.8,26.8,14.4c42.4,20.2,94.7,34.6,157.4,34.6c35.3,0,65.3-3.3,90.8-9.8c32.6-7.8,58.8-19.6,78.4-32.6
		c20.2,13.1,45.7,24.8,78.4,32.6c25.5,5.9,55.5,9.8,90.8,9.8c62.7,0,114.3-14.4,157.4-34.6c9.1-4.6,18.3-9.1,26.8-14.4
		c13.1-7.8,24.8-15.7,35.3-24.2c10.4-8.5,20.2-17,29.4-25.5l16.3-16.3c2.6-2.6,5.2-5.2,7.2-7.8c4.6-5.2,8.5-10.4,12.4-15
		c18.9-24.2,27.4-41.8,27.4-41.8L936.6,509.3z M562.4,586.4l-5.9,2.6l-5.9-2.6c0,0-85.5-67.9-105.8-199.8c0,0,52.2-24.2,111-24.2
		s111,24.2,111,24.2C648,519.1,562.4,586.4,562.4,586.4z M189.6,860c3.3,4.6,5.2,10.4,5.2,17c0,6.5-2,12.4-5.2,16.3
		c-2,2.6-4.6,4.6-8.5,6.5c5.9,2,9.8,5.2,13.1,9.8c2.6,4.6,4.6,9.8,4.6,16.3s-2,12.4-5.2,17.6c-2,3.3-4.6,6.5-7.8,8.5
		c-3.3,2.6-7.8,4.6-12.4,5.9c-4.6,1.3-9.8,1.3-15.7,1.3h-50.3v-111h53.5C173.9,848.2,183.7,852.1,189.6,860L189.6,860z M129.5,867.1
		v24.2h26.8c4.6,0,8.5-0.7,11.8-2.6c3.3-2,4.6-5.2,4.6-9.8c0-5.2-2-8.5-5.9-10.4c-3.3-1.3-7.8-2-13.1-2h-24.2V867.1z M129.5,910.2
		v29.4h26.8c4.6,0,8.5-0.7,11.1-2c4.6-2.6,7.2-7.2,7.2-13.7c0-5.9-2.6-9.8-7.2-11.8c-2.6-1.3-6.5-2-11.1-2L129.5,910.2z M266,878.9
		c5.9,2.6,10.4,6.5,14.4,12.4c3.3,4.6,5.2,10.4,6.5,17c0.7,3.9,0.7,9.1,0.7,16.3h-59.4c0.7,8.5,3.3,13.7,8.5,17.6
		c3.3,2,7.2,3.3,11.8,3.3c4.6,0,9.1-1.3,11.8-3.9c2-1.3,3.3-3.3,4.6-5.9h22.2c-0.7,4.6-3.3,9.8-7.8,15c-7.2,7.8-17.6,11.8-30.7,11.8
		c-11.1,0-20.2-3.3-28.7-9.8c-8.5-6.5-12.4-17.6-12.4-32.6c0-14.4,3.9-24.8,11.1-32.6c7.8-7.8,17.6-11.1,29.4-11.1
		C254.2,875,260.1,876.3,266,878.9L266,878.9z M234,897.2c-3.3,3.3-5.2,7.2-5.9,12.4h37.2c-0.7-5.9-2.6-9.8-5.9-13.1
		s-7.8-4.6-12.4-4.6C241.2,892.6,237.3,893.9,234,897.2L234,897.2z M317.6,933.1c0.7,3.9,1.3,6.5,3.3,7.8c2.6,2.6,7.8,4.6,15,4.6
		c3.9,0,7.8-0.7,9.8-2c2.6-1.3,3.9-3.3,3.9-5.9s-1.3-3.9-3.3-5.2s-9.8-3.3-22.2-6.5c-9.1-2.6-15.7-5.2-19.6-8.5
		c-3.9-3.3-5.9-8.5-5.9-15c0-7.8,3.3-14.4,9.1-19.6c5.9-5.2,14.4-8.5,25.5-8.5c10.4,0,18.9,2,24.8,5.9c6.5,3.9,10.4,11.1,11.1,20.9
		h-21.5c0-2.6-1.3-5.2-2.6-6.5c-2.6-2.6-6.5-4.6-11.8-4.6c-4.6,0-7.8,0.7-9.8,2c-2,1.3-3.3,3.3-3.3,5.2c0,2.6,1.3,3.9,3.3,5.2
		s9.8,3.3,22.2,5.9c8.5,2,15,5.2,18.9,9.1s6.5,9.1,6.5,15.7c0,7.8-3.3,15-9.1,19.6c-5.9,5.2-15.7,7.8-28.1,7.8
		c-13.1,0-22.2-2.6-28.7-8.5c-5.9-5.2-9.1-12.4-9.1-20.9h21.5L317.6,933.1z M378.3,893.3v-15H390v-22.9h20.9v22.9H424v15h-13.1v43.1
		c0,3.3,0.7,5.2,1.3,6.5c0.7,0.7,3.3,1.3,7.8,1.3h3.9v16.3l-10.4,0.7c-10.4,0.7-17-1.3-20.9-5.2c-2.6-2.6-3.9-6.5-3.9-11.1v-50.3
		h-10.4L378.3,893.3z M479.5,848.2h79v19.6h-56.2v25.5h49v18.9h-49v46.4h-22.9V848.2z M614.7,875h2v22.2h-6.5
		c-8.5,0-14.4,2.6-17.6,8.5c-2,3.3-2.6,7.8-2.6,14.4v39.2h-21.5v-82.3h20.2v14.4c3.3-5.2,5.9-9.1,8.5-11.1c3.9-3.3,9.1-5.2,15.7-5.2
		L614.7,875z M650.6,867.1H629v-19.6h21.5V867.1z M629,876.9h21.5v82.3H629V876.9z M720.4,878.9c5.9,2.6,10.4,6.5,14.4,12.4
		c3.3,4.6,5.2,10.4,6.5,17c0.7,3.9,0.7,9.1,0.7,16.3h-60.1c0.7,8.5,3.3,13.7,8.5,17.6c3.3,2,7.2,3.3,11.8,3.3s9.1-1.3,11.8-3.9
		c2-1.3,3.3-3.3,4.6-5.9h22.2c-0.7,4.6-3.3,9.8-7.8,15c-7.2,7.8-17.6,11.8-30.7,11.8c-11.1,0-20.2-3.3-28.7-9.8
		C664.9,946.1,661,935,661,920c0-14.4,3.9-24.8,11.1-32.6c7.8-7.8,17.6-11.1,29.4-11.1C708,875,714.6,876.3,720.4,878.9L720.4,878.9
		z M688.5,897.2c-3.3,3.3-5.2,7.2-5.9,12.4h37.2c-0.7-5.9-2.6-9.8-5.9-13.1s-7.8-4.6-12.4-4.6C695.6,892.6,691.1,893.9,688.5,897.2
		L688.5,897.2z M821,881.5c5.2,4.6,7.8,11.8,7.8,22.2v55.5h-22.2v-49.6c0-4.6-0.7-7.8-2-9.8c-2-3.9-5.9-6.5-11.8-6.5
		c-7.2,0-12.4,3.3-15,9.1c-1.3,3.3-2,7.2-2,12.4v44.4h-21.5v-81.6h20.9v11.8c2.6-3.9,5.2-7.2,7.8-9.1c4.6-3.3,9.8-5.2,17-5.2
		C809.2,875,815.8,877.6,821,881.5L821,881.5z M893.5,878.2c3.9,2,7.2,5.2,9.1,9.1v-39.2h21.5v111h-20.2v-11.1
		c-3.3,4.6-6.5,8.5-10.4,10.4s-8.5,3.3-14.4,3.3c-9.8,0-17.6-3.9-24.2-11.8c-6.5-7.8-9.8-17.6-9.8-30c0-13.7,3.3-24.8,9.8-33.3
		c6.5-7.8,15-11.8,26.1-11.8C885.6,875,890.2,876.3,893.5,878.2L893.5,878.2z M899.4,937c3.3-4.6,4.6-10.4,4.6-17.6
		c0-9.8-2.6-17-7.8-21.5c-3.3-2.6-6.5-3.9-11.1-3.9c-6.5,0-11.1,2.6-13.7,7.2c-2.6,4.6-4.6,10.4-4.6,17.6c0,7.8,1.3,13.7,4.6,18.3
		s7.8,6.5,13.7,6.5C891.5,943.5,896.1,941.6,899.4,937z M959.4,933.1c0.7,3.9,1.3,6.5,3.3,7.8c2.6,2.6,7.8,4.6,15,4.6
		c3.9,0,7.8-0.7,9.8-2c2.6-1.3,3.9-3.3,3.9-5.9s-1.3-3.9-3.3-5.2c-2-1.3-9.8-3.3-22.2-6.5c-9.1-2.6-15.7-5.2-19.6-8.5
		s-5.9-8.5-5.9-15c0-7.8,3.3-14.4,9.1-19.6c5.9-5.2,14.4-8.5,25.5-8.5c10.4,0,18.9,2,24.8,5.9c5.9,3.9,10.4,11.1,11.1,20.9h-22.2
		c0-2.6-1.3-5.2-2.6-6.5c-2.6-2.6-6.5-4.6-11.8-4.6c-4.6,0-7.8,0.7-9.8,2s-3.3,3.3-3.3,5.2c0,2.6,1.3,3.9,3.3,5.2s9.8,3.3,22.2,5.9
		c8.5,2,15,5.2,18.9,9.1c3.9,3.9,6.5,9.1,6.5,15.7c0,7.8-3.3,15-9.1,19.6c-5.9,5.2-15.7,7.8-28.1,7.8c-13.1,0-22.2-2.6-28.7-8.5
		c-5.9-5.2-9.1-12.4-9.1-20.9h22.2L959.4,933.1z M1058.7,910.2c-4.6,3.9-9.8,6.5-15.7,6.5c-6.5,0-11.8-2-15.7-6.5
		c-4.6-4.6-6.5-9.8-6.5-15.7c0-6.5,2.6-11.8,7.2-16.3c4.6-3.9,9.8-5.9,15.7-5.9c5.9,0,11.8,2,15.7,6.5c4.6,4.6,6.5,9.8,6.5,15.7
		C1065.2,900.4,1063.3,905.7,1058.7,910.2z M1030,880.8c-3.3,3.9-5.2,7.8-5.2,13.1c0,5.2,2,9.8,5.2,13.1c3.9,3.9,7.8,5.2,13.1,5.2
		c5.2,0,9.1-2,13.1-5.2c3.9-3.9,5.2-7.8,5.2-13.1c0-5.2-2-9.1-5.2-13.1c-3.9-3.9-7.8-5.9-13.1-5.9
		C1037.8,875.6,1033.2,877.6,1030,880.8z M1033.2,906.3v-24.8h12.4c2,0,3.3,0.7,4.6,1.3c2,1.3,3.3,3.3,3.3,5.9c0,2-0.7,3.3-2,4.6
		c-1.3,0.7-2.6,1.3-4.6,2c1.3,0,2.6,0.7,3.3,1.3c1.3,1.3,2,3.3,2,5.9v3.9h-4.6c0-0.7-0.7-2-0.7-3.3s0-2.6-0.7-3.3c0-0.7-0.7-1.3-2-2
		c-0.7,0-1.3-0.7-2-0.7h-2.6v8.5h-6.5L1033.2,906.3z M1045,886.7c-0.7-0.7-2-0.7-3.9-0.7h-1.3v7.2h2.6c1.3,0,2.6,0,3.3-0.7
		c0.7-0.7,1.3-1.3,1.3-3.3C1046.9,888,1046.3,887.4,1045,886.7L1045,886.7z M1052.8,550.4c-3.9,3.3-7.8,5.2-13.1,5.2
		s-9.8-2-13.1-5.2c-3.3-3.3-5.2-7.8-5.2-13.1c0-5.2,2-9.8,5.9-13.7c3.9-3.3,7.8-5.2,13.1-5.2c5.2,0,9.8,2,13.1,5.2
		c3.9,3.9,5.2,7.8,5.2,13.1C1058,542.6,1056.7,546.5,1052.8,550.4z M1028.6,526.3c-3.3,3.3-4.6,6.5-4.6,10.4c0,4.6,1.3,7.8,4.6,11.1
		c3.3,3.3,6.5,4.6,11.1,4.6c3.9,0,7.8-1.3,11.1-4.6c3.3-3.3,4.6-6.5,4.6-11.1c0-3.9-1.3-7.8-4.6-10.4c-3.3-3.3-6.5-4.6-11.1-4.6
		S1031.9,523,1028.6,526.3z M1031.9,547.2v-20.2h9.8c1.3,0,3.3,0.7,3.9,1.3c2,1.3,2.6,2.6,2.6,5.2c0,2-0.7,3.3-1.3,3.9
		c-0.7,0.7-2,1.3-3.3,1.3c1.3,0,2,0.7,2.6,1.3c1.3,0.7,2,2.6,2,4.6v3.9h-5.2c0-0.7,0-1.3-0.7-2.6c0-1.3,0-2-0.7-2.6
		c0-0.7-0.7-1.3-1.3-1.3c-0.7,0-1.3,0-2-0.7h-2.6v7.2h-3.9L1031.9,547.2z M1041.7,530.9c-0.7,0-2-0.7-3.3-0.7h-1.3v5.9h2
		c1.3,0,2,0,3.3-0.7c0.7-0.7,1.3-1.3,1.3-2.6L1041.7,530.9z M1966.3,703.9c-3.9,3.3-7.8,5.2-13.1,5.2s-9.8-2-13.1-5.2
		c-3.3-3.3-5.2-7.8-5.2-13.1c0-5.2,2-9.8,5.9-13.7c3.9-3.3,7.8-5.2,13.1-5.2s9.8,2,13.1,5.2c3.9,3.9,5.2,7.8,5.2,13.1
		C1971.5,695.4,1969.6,700,1966.3,703.9z M1942.1,679.7c-3.3,3.3-4.6,6.5-4.6,10.4c0,4.6,1.3,7.8,4.6,11.1c3.3,3.3,6.5,4.6,11.1,4.6
		c3.9,0,7.8-1.3,11.1-4.6c3.3-3.3,4.6-6.5,4.6-11.1c0-3.9-1.3-7.8-4.6-10.4c-3.3-3.3-6.5-4.6-11.1-4.6S1945.4,676.5,1942.1,679.7z
		 M1944.8,700.6v-20.2h9.8c1.3,0,3.3,0.7,3.9,1.3c2,1.3,2.6,2.6,2.6,5.2c0,2-0.7,3.3-1.3,3.9c-0.7,0.7-2,1.3-3.3,1.3
		c1.3,0,2,0.7,2.6,1.3c1.3,0.7,2,2.6,2,4.6v3.9h-5.2c0-0.7,0-1.3-0.7-2.6c0-1.3,0-2-0.7-2.6c0-0.7-0.7-1.3-1.3-1.3
		c-0.7,0-1.3,0-2-0.7h-2.6v7.2h-3.9L1944.8,700.6z M1954.5,684.3c-0.7,0-2-0.7-3.3-0.7h-1.3v5.9h2c1.3,0,2,0,3.3-0.7
		c0.7-0.7,1.3-1.3,1.3-2.6C1956.5,685.6,1955.9,684.3,1954.5,684.3z M1394.3,202.4c2,12.4,5.2,22.2,10.4,28.7
		c9.8,11.8,26.1,17,49.6,17c13.7,0,25.5-1.3,34-4.6c16.3-5.9,24.8-16.3,24.8-32c0-9.1-3.9-16.3-12.4-21.5
		c-7.8-5.2-20.9-9.1-38.5-13.1l-30-6.5c-29.4-6.5-49.6-13.7-60.7-21.5c-18.9-13.1-28.1-32.6-28.1-60.1c0-24.8,9.1-45.7,27.4-62
		c18.3-16.3,45.1-24.8,81-24.8c29.4,0,54.8,7.8,75.7,23.5c20.9,15.7,32,37.9,32.6,67.3h-55.5c-1.3-17-8.5-28.7-22.2-35.9
		c-9.1-4.6-20.9-7.2-34.6-7.2c-15,0-27.4,3.3-36.6,9.1s-13.7,14.4-13.7,25.5c0,9.8,4.6,17.6,13.7,22.2c5.9,3.3,18.3,7.2,37.2,11.8
		l49,11.8c21.5,5.2,37.2,11.8,48.3,20.2c16.3,13.1,24.8,32,24.8,56.8c0,25.5-9.8,46.4-29.4,63.3c-19.6,17-47,25.5-82.9,25.5
		c-36.6,0-65.3-8.5-86.2-24.8s-31.3-39.2-31.3-67.9h53.5V202.4z M1678.3,10.4h65.9l98.6,277.5h-62.7l-18.3-56.8h-102.5l-18.9,56.8
		h-60.7L1678.3,10.4z M1674.4,182.8h71.2l-35.3-109L1674.4,182.8z M2004.2,10.4h60.1L1969.6,288h-54.8l-94-277.5h62l60.1,210.9
		L2004.2,10.4z M2297.4,59.4h-146.9v58.8h135.2v48.3h-135.2v71.2h154.1v49.6h-210.3V10.4H2298v49L2297.4,59.4z M1554.3,345.4v49
		h-82.9v228.5h-58.1V394.4h-83.6v-49H1554.3z M1592.8,622.9V345.4h57.5v105.8H1758V345.4h57.5v277.5H1758V498.9h-107.7v124.1
		L1592.8,622.9z M2079.3,394.4h-146.9v58.8h135.2v48.3h-135.2v71.2h154.1v49.6h-210.3V345.4h203.1V394.4z M2332.6,345.4h92.7v277.5
		h-60.1V434.9V412v-22.2l-58.8,233.1h-62.7l-57.5-233.1v233.1h-60.1V345.4h94l56.2,218.7L2332.6,345.4z M1431.5,680.4h65.9
		l98.6,277.5h-62.7l-18.3-56.8h-102.5l-18.9,56.8h-60.7L1431.5,680.4z M1427.6,852.8h71.2l-35.3-109L1427.6,852.8z M1617.6,680.4
		h58.1v227.9h138.4v49.6h-196.5V680.4z M1846.8,680.4h58.1v227.9h138.4v49.6h-196.5V680.4z M1176.2,2h13.1v967h-13.1V2z"/>
</g>
</svg>
