<?xml version="1.0" encoding="utf-8"?>
<!-- Generator: Adobe Illustrator 25.2.1, SVG Export Plug-In . SVG Version: 6.00 Build 0)  -->
<svg version="1.1" id="Capa_1" xmlns="http://www.w3.org/2000/svg" xmlns:xlink="http://www.w3.org/1999/xlink" x="0px" y="0px"
	 viewBox="0 0 2500 581.1" style="enable-background:new 0 0 2500 581.1;" xml:space="preserve">
<style type="text/css">
	.st0{display:none;fill-rule:evenodd;clip-rule:evenodd;fill:#FFFFFF;}
	.st1{fill-rule:evenodd;clip-rule:evenodd;fill:#878787;}
</style>
<g>
	<path class="st0" d="M0-975.7h2500v2500H0V-975.7z"/>
	<path class="st1" d="M2230.1,474.5c90.5,0,56.8-132.1,85.2-174.1c-88.4,58.5-150,193.5-225.8,193.5c-8.5,0-36.1-1.3-36.1-28.8
		c0-8.5,2.3-18.4,7.5-27.8l66.6-119.5c2.5-4.5,3.8-8.5,3.8-11.7c0-5.7-2.5-8.8-9-8.8c-31.1,0-104.6,91.3-132.7,141.7l-29.2,52.5
		h-58.3l56.6-101.4c-27.1,33.5-85.6,103.9-132.9,103.9c-14.9,0-36.3-3.5-36.3-43.6c-23.9,29.2-48.4,43.6-71.5,43.6
		c-35.2,0-62.1-23-62.1-61.9c0-7.1,0.4-16,2.8-24.1c-34.4,44.8-77.2,86-116.9,86c-20.1,0-35-13-35-32c0-7.5,2.5-16.6,7.7-26.2
		l66.1-118.4c2.4-4.5,3.7-8.5,3.7-11.7c0-5.7-3.7-9-9.8-9s-14.5,3.4-24.3,10.5c-20.1,15-66.2,61.2-104.1,128.5l-31.2,55.7h-58.2
		l97.5-174.8c2.4-4.5,3.6-8.5,3.6-11.9c0-5.7-3.6-8.8-9.8-8.8c-30.3,0-102.2,90.2-125.2,131.7l-35.2,63.8h-58.2l56.3-101.8
		l-14.7,17.9c-25.4,31-42,50.1-62.1,64.6c-18.2,13-38,21.8-59.5,21.8c-21.3,0-35.9-13-35.9-32.7c0-8.5,2.8-17.7,8.8-28.2l61.3-109.5
		c5.3-9.6,7-14.9,7-18.1c0-5.8-3.6-9-9.8-9c-6,0-14.5,3.2-24.1,10.5c-22.2,16.9-76.4,65.1-110.7,126.5l-32.4,58.2h-58.1l54.8-99
		c-29.2,32.7-94.8,101.4-147.4,101.4c-21.8,0-37.8-10.9-37.8-31c0-8.5,2.3-18.3,8.8-29.9l89.8-160h-42.3l7-12.2H931l46.1-83.2
		c3.2-5.6,6.4-11.3,16.9-11.3h47.8L989,260.7h53.3l-6.8,12.2h-53.3l-97.1,173.3c-4,7.1-5.3,12.1-5.3,16c0,2.8,0.9,10.2,10.9,10.2
		c14.1,0,68.3-34.6,120.1-97.3c11.7-14.1,47.2-69.3,54-81.3l103.9-185.7c4.5-8.1,10.9-13,20.3-13h45l-145.3,261
		c24.6-27.8,77.5-86.4,126.8-86.4c11.7,0,32.4,4.3,32.4,29c0,9.8-3.6,21.1-10.3,33.1l-64.4,114.4c-4.1,7.1-5.7,12.1-5.7,16
		c0,6.2,3.6,10.9,10.9,10.9c8.8,0,21.8-7.1,36.7-19.8c26.3-21.5,93.7-105.4,118.8-150.9l10.5-19c3.2-6.2,8.5-10.5,17.3-10.5h46.5
		l-38.4,69.8c25.4-30.3,68.7-73,112.7-73c11.7,0,32.4,4.3,32.4,29c0,9.8-3.2,20.7-13.4,37.3h0.2c27.3-30.7,68.5-66.2,107.3-66.2
		c22.2,0,31.6,12.8,31.6,29c0,9.8-3.4,21.4-9.8,32.7l-64.4,115.2c-3,5.3-3.6,8.8-3.6,11.7c0,5.2,2.8,8.1,8.5,8.1
		c9.2,0,32-7.3,84.9-73.2c4.9-6,23.7-35.4,30.3-44.8c32.2-45.5,81.9-78.7,129.7-78.7c27.5,0,43.7,9.6,43.7,39.9l13.7-23.7
		c4.7-8.7,10.7-13,20.9-13h43.3l-95.8,171.6c-4.1,7-5.3,12.1-5.3,16.2c0,3.6,2.5,10.9,10.9,10.9c17.3,0,51.2-23.9,119.5-108.2
		c17.9-21.8,24.3-31.8,40.1-60.6l10.9-20c3-5.6,7.9-10,17.7-10h45.7l-40.5,73.4c37.1-44.8,77.9-76.6,114.8-76.6c11.7,0,32,4.3,32,29
		c0,9.8-4,21.8-10.2,33.1l-64.6,115.7c-2.3,4.2-3.4,7.9-3.4,10.7c0,3.2,1.9,9.8,9.2,9.8c39.5,0,143.8-175.4,229.8-201.2
		c11.6-3.8,23-6.6,40.8-6.6l-8.5,22.6c-5-2.3-10.3-3.5-15.8-3.6c-23.5,0-32.4,19.4-32.4,38c0,25,18.2,54.9,18.2,88.5
		c0,61-53.8,88.1-102.2,88.1c-33.5,0-58.1-11.3-74.3-27.8c-1.6-1.5-2.4-3.5-2.5-5.7c0-4.1,3.2-7.3,7.2-7.3c2,0,3.7,0.4,5.8,2.5
		C2194.2,464.4,2209.4,474.5,2230.1,474.5L2230.1,474.5z M488.9,494.1c-22.4,0-45.4-14.5-45.4-50.1c0-43.5,41-90,41-116.3
		c0-13-1.5-22.6-26-25.2c-3.4-0.4-5.1-2.8-5.1-5.3c0-3,2.3-5.4,5.1-5.4c110.1,0,171.3-77.5,171.3-133.6c0-26.9-11.9-50.1-36.7-66.8
		c-43.9,27.9-76.6,77.4-109.7,134.4l-33.9,58.3c-65.9,113.3-141.9,211.2-257.4,211.2c-53.1,0-81.9-34.4-81.9-71.5
		c0-34.4,25-71.7,80.4-86.2c0.9-0.2,1.5-0.4,2.3-0.4c2.8,0,5.1,2.1,5.1,4.9c0,2.5-1.3,4.2-4,4.9c-49.9,14.5-71.1,45.2-71.1,76
		c0,30.1,23,57,59.1,57c70.8,0,129.7-83.6,185.4-177.5l21.6-36.7c56.8-95.6,124.8-153.9,187.3-183.9c-20.5-9.4-48-14.9-82.2-14.9
		c-155.4,0-212.8,81.3-212.8,132.5c0,23,12.4,39.9,33.9,39.9c19.2,0,42.5-13.7,64.4-46.9c1-1.4,2.6-2.3,4.3-2.3
		c2.6,0,4.9,2.3,4.9,4.9c0,1-0.3,2-0.9,2.8c-24.3,39.9-55.5,54.8-83.2,54.8c-38,0-59.1-22.6-59.1-52.5c0-89.8,135.7-147,257.4-147
		c36.5,0,72.3,4.9,104.3,16.2c22.4-7.3,43.9-10.9,63.2-10.9c2.4,0,4.4,2,4.4,4.4c0,2.4-2,4.4-4.4,4.4c-16.8,0.6-32.4,3.4-47.2,8.8
		c35.4,15.6,67.8,46.3,67.8,94.5c0,65.1-65.9,125.3-185.6,131.3v0.4c25.2,10.2,33.1,28,33.1,48.4c0,31.8-26.7,70-26.7,94.3
		c0,11.3,9.2,16,16.5,16c24.1,0,78.7-71.7,94.1-98.1c35-59.5,85.4-93.3,136.4-93.3c50.1,0,79.6,32.7,79.6,77.9
		c0,71.5-73.2,146.2-148.7,146.2c-47.2,0-79.2-32-79.2-78.5c0-4.7,0.4-9.6,1.1-14.1h-0.2C561.4,470.8,520.4,494.1,488.9,494.1
		L488.9,494.1z M1707.5,458.4c0,14.5,6.6,21.4,18.7,21.4c21.1,0,53.8-27.8,80.7-76.4l29.9-53.6c5.6-13.3,8.5-27.7,8.5-42.2
		c0-16-5.7-23.7-18.1-23.7C1781.1,283.9,1707.5,413.2,1707.5,458.4z M767.7,287.9c-40.5,0-108.6,107.1-108.6,160.7
		c0,10.2,1.1,27.1,21.3,27.1c50.2,0,107.5-117.1,107.5-161.1C787.8,304.8,785.9,287.9,767.7,287.9z"/>
</g>
</svg>
