<?xml version="1.0" encoding="utf-8"?>
<!-- Generator: Adobe Illustrator 25.2.1, SVG Export Plug-In . SVG Version: 6.00 Build 0)  -->
<svg version="1.1" xmlns="http://www.w3.org/2000/svg" xmlns:xlink="http://www.w3.org/1999/xlink" x="0px" y="0px"
	 viewBox="0 0 694.6 247" style="enable-background:new 0 0 694.6 247;" xml:space="preserve">
<style type="text/css">
	.st0{fill:none;}
	.st1{fill:#FFFFFF;}
</style>
<g id="Capa_1">
	<g>
		<rect x="228.8" y="50.3" class="st0" width="528.2" height="159.1"/>
		<path class="st1" d="M257.4,162.7c0.6,7.8,6.4,15,18,15c8.8,0,13-4.6,13-9.8c0-4.4-3-8-10.6-9.6l-13-3
			c-19-4.2-27.6-15.6-27.6-29.4c0-17.6,15.6-32.2,36.8-32.2c28,0,37.4,17.8,38.6,28.4l-22.2,5c-0.8-5.8-5-13.2-16.2-13.2
			c-7,0-12.6,4.2-12.6,9.8c0,4.8,3.6,7.8,9,8.8l14,3c19.4,4,29.2,15.8,29.2,30.2c0,16-12.4,32.4-38.2,32.4
			c-29.6,0-39.8-19.2-41-30.4L257.4,162.7z"/>
		<path class="st1" d="M358.8,96.7h19.8v23.6h-19.8v41.2c0,8.6,4,11.4,11.6,11.4c3.2,0,6.8-0.4,8.2-0.8v22c-2.4,1-7.2,2.4-15,2.4
			c-19.2,0-31.2-11.4-31.2-30.4v-45.8h-17.8V96.7h5c10.4,0,15.2-6.8,15.2-15.6V67.3h24V96.7z"/>
		<path class="st1" d="M405.2,47.9c9.2,0,16.4,7.4,16.4,16.6c0,8.8-7.2,16.2-16.4,16.2c-9,0-16.4-7.4-16.4-16.2
			C388.8,55.3,396.2,47.9,405.2,47.9z M392,195.1V96.7h26.6v98.4H392z"/>
		<path class="st1" d="M437.8,195.1V50.3h26.6v144.8H437.8z"/>
		<path class="st1" d="M506.4,138.5l24.2-3.6c5.6-0.8,7.4-3.6,7.4-7c0-7-5.4-12.8-16.6-12.8c-11.6,0-18,7.4-18.8,16l-23.6-5
			c1.6-15.4,15.8-32.4,42.2-32.4c31.2,0,42.8,17.6,42.8,37.4v48.4c0,5.2,0.6,12.2,1.2,15.6h-24.4c-0.6-2.6-1-8-1-11.8
			c-5,7.8-14.4,14.6-29,14.6c-21,0-33.8-14.2-33.8-29.6C477,150.7,490,140.9,506.4,138.5z M538,155.3v-4.4l-22.2,3.4
			c-6.8,1-12.2,4.8-12.2,12.4c0,5.8,4.2,11.4,12.8,11.4C527.6,178.1,538,172.7,538,155.3z"/>
		<path class="st1" d="M581.6,233.1V96.7h25.8v12c4.4-7.6,15.4-14.2,30.2-14.2c28.8,0,45.4,22,45.4,51.2c0,29.8-18.6,51.8-46.4,51.8
			c-13.6,0-23.6-5.4-28.4-12v47.6H581.6z M632.4,118.3c-13.6,0-24.6,10.2-24.6,27.6c0,17.4,11,27.8,24.6,27.8s24.4-10.2,24.4-27.8
			C656.8,128.5,646,118.3,632.4,118.3z"/>
	</g>
</g>
<g id="Capa_2">
	
		<rect x="3.2" y="62.2" transform="matrix(0.7071 -0.7071 0.7071 0.7071 -32.4691 75.6134)" class="st1" width="143.6" height="29.5"/>
	
		<rect x="84.4" y="62.2" transform="matrix(0.7071 0.7071 -0.7071 0.7071 100.2112 -87.9304)" class="st1" width="143.6" height="29.5"/>
	
		<image style="display:none;overflow:visible;" width="2298" height="325" xlink:href="paleta.JPG"  transform="matrix(0.3 0 0 0.3 -12.4852 302.2567)">
	</image>
</g>
<g id="Capa_3">
	<g>
		<rect x="61.3" y="-53.3" class="st0" width="108.7" height="341.9"/>
		<path class="st1" d="M111.5,120.4c22.4,0,34.6,18.9,34.6,40c0,49.6-35.2,70.7-60.8,73.6v-22.7c13.8-2.6,31.4-15.4,32-34.6
			c-1.6,1.3-5.1,2.2-9,2.2c-17.6,0-28.8-12.8-28.8-28.8C79.5,133.2,93.3,120.4,111.5,120.4z"/>
	</g>
	<g>
	</g>
	<g>
	</g>
	<g>
	</g>
	<g>
	</g>
	<g>
	</g>
	<g>
	</g>
</g>
</svg>
